<?xml version="1.0" encoding="UTF-8" standalone="no"?> <svg width="512" height="512" viewBox="0 0 512 512" fill="none" xmlns="http://www.w3.org/2000/svg">
<path d="M470 48H42C35.1067 48.0077 28.498 50.7494 23.6237 55.6237C18.7494 60.498 16.0077 67.1067 16 74V358C16.0077 364.893 18.7494 371.502 23.6237 376.376C28.498 381.251 35.1067 383.992 42 384H198.776L193.061 424H176C174.216 424 172.483 424.596 171.077 425.695C169.67 426.793 168.672 428.329 168.239 430.06L160.239 462.06C159.944 463.239 159.922 464.471 160.174 465.66C160.426 466.849 160.946 467.965 161.695 468.923C162.443 469.882 163.399 470.657 164.492 471.19C165.585 471.723 166.784 472 168 472H344C345.216 472 346.415 471.723 347.508 471.19C348.601 470.657 349.557 469.882 350.305 468.923C351.054 467.965 351.573 466.849 351.826 465.66C352.078 464.471 352.056 463.239 351.761 462.06L343.761 430.06C343.328 428.329 342.33 426.793 340.923 425.695C339.517 424.596 337.784 424 336 424H318.939L313.224 384H470C476.893 383.992 483.502 381.251 488.376 376.376C493.251 371.502 495.992 364.893 496 358V74C495.992 67.1067 493.251 60.498 488.376 55.6237C483.502 50.7494 476.893 48.0077 470 48V48ZM88 368V304H120V368H88ZM96 202.9C94.026 204.544 92.6065 206.757 91.9348 209.237C91.2631 211.716 91.3718 214.343 92.2461 216.759C93.1204 219.174 94.7178 221.262 96.821 222.738C98.9242 224.213 101.431 225.005 104 225.005C106.569 225.005 109.076 224.213 111.179 222.738C113.282 221.262 114.88 219.174 115.754 216.759C116.628 214.343 116.737 211.716 116.065 209.237C115.394 206.757 113.974 204.544 112 202.9V170.422L142.385 216L115.719 256H92.281L65.615 216L96 170.422V202.9ZM120 288H88C85.8783 288 83.8434 287.157 82.3431 285.657C80.8429 284.157 80 282.122 80 280C80 277.878 80.8429 275.843 82.3431 274.343C83.8434 272.843 85.8783 272 88 272H120C122.122 272 124.157 272.843 125.657 274.343C127.157 275.843 128 277.878 128 280C128 282.122 127.157 284.157 125.657 285.657C124.157 287.157 122.122 288 120 288ZM333.754 456H178.246L182.246 440H329.754L333.754 456ZM302.776 424H209.224L214.938 384H232C232 390.365 234.529 396.47 239.029 400.971C243.53 405.471 249.635 408 256 408C262.365 408 268.47 405.471 272.971 400.971C277.471 396.47 280 390.365 280 384H297.062L302.776 424ZM248 384H264C264 386.122 263.157 388.157 261.657 389.657C260.157 391.157 258.122 392 256 392C253.878 392 251.843 391.157 250.343 389.657C248.843 388.157 248 386.122 248 384ZM400 368V352H408C410.122 352 412.157 351.157 413.657 349.657C415.157 348.157 416 346.122 416 344C416 341.878 415.157 339.843 413.657 338.343C412.157 336.843 410.122 336 408 336H400V320H416C418.122 320 420.157 319.157 421.657 317.657C423.157 316.157 424 314.122 424 312C424 309.878 423.157 307.843 421.657 306.343C420.157 304.843 418.122 304 416 304H400V288H408C410.122 288 412.157 287.157 413.657 285.657C415.157 284.157 416 282.122 416 280C416 277.878 415.157 275.843 413.657 274.343C412.157 272.843 410.122 272 408 272H400V256H416C418.122 256 420.157 255.157 421.657 253.657C423.157 252.157 424 250.122 424 248C424 245.878 423.157 243.843 421.657 242.343C420.157 240.843 418.122 240 416 240H400V224H408C410.122 224 412.157 223.157 413.657 221.657C415.157 220.157 416 218.122 416 216C416 213.878 415.157 211.843 413.657 210.343C412.157 208.843 410.122 208 408 208H400V192H448V368H400ZM480 358C479.997 360.651 478.943 363.193 477.068 365.068C475.193 366.943 472.651 367.997 470 368H464V184C464 181.878 463.157 179.843 461.657 178.343C460.157 176.843 458.122 176 456 176H392C389.878 176 387.843 176.843 386.343 178.343C384.843 179.843 384 181.878 384 184V368H136V297.869C138.785 295.38 140.95 292.274 142.322 288.8C143.694 285.325 144.235 281.578 143.902 277.858C143.569 274.137 142.371 270.546 140.403 267.37C138.436 264.195 135.753 261.524 132.57 259.569L158.656 220.441C159.532 219.127 160 217.583 160 216.003C160 214.423 159.532 212.879 158.656 211.565L110.656 139.565C109.925 138.469 108.936 137.571 107.775 136.95C106.613 136.328 105.317 136.003 104 136.003C102.683 136.003 101.387 136.328 100.225 136.95C99.0643 137.571 98.0746 138.469 97.344 139.565L49.344 211.565C48.4677 212.879 48.0001 214.423 48.0001 216.003C48.0001 217.583 48.4677 219.127 49.344 220.441L75.43 259.566C72.2467 261.521 69.5642 264.192 67.5966 267.367C65.6291 270.543 64.4309 274.134 64.0977 277.855C63.7645 281.575 64.3055 285.322 65.6775 288.797C67.0495 292.271 69.2146 295.377 72 297.866V368H42C39.3487 367.997 36.8069 366.943 34.9321 365.068C33.0574 363.193 32.0029 360.651 32 358V74C32.0029 71.3487 33.0574 68.8069 34.9321 66.9321C36.8069 65.0574 39.3487 64.0029 42 64H470C472.651 64.0029 475.193 65.0574 477.068 66.9321C478.943 68.8069 479.997 71.3487 480 74V358Z" fill="black"/>
<path d="M375.76 101.9C373.383 99.8301 370.622 98.2488 367.634 97.2463C364.646 96.2437 361.489 95.8396 358.345 96.0569C355.201 96.2742 352.13 97.1086 349.308 98.5127C346.486 99.9167 343.969 101.863 341.899 104.24L335.106 112.04C334.62 112.602 334.027 113.061 333.362 113.392C332.697 113.723 331.972 113.919 331.231 113.968C328.392 114.157 325.619 114.907 323.072 116.174C320.524 117.442 318.254 119.202 316.391 121.353L314.853 123.121C313.46 124.721 312.76 126.809 312.906 128.925C313.053 131.041 314.033 133.013 315.633 134.406L298.158 154.477C277.603 146.007 254.604 145.634 233.784 153.431C212.965 161.228 195.869 176.618 185.934 196.507C176 216.395 173.963 239.307 180.234 260.636C186.504 281.965 200.617 300.13 219.735 311.477L219.748 311.486C233.028 319.373 248.151 323.625 263.596 323.814C279.04 324.003 294.263 320.123 307.732 312.564C321.202 305.005 332.444 294.033 340.328 280.751C348.213 267.469 352.462 252.346 352.648 236.901V236.901C352.907 217.991 347.039 199.504 335.92 184.206L351.836 165.925C353.292 167.193 355.158 167.891 357.089 167.891C357.272 167.891 357.457 167.885 357.642 167.872C359.759 167.725 361.73 166.743 363.123 165.143L364.66 163.377C366.534 161.236 367.965 158.745 368.871 156.048C369.776 153.35 370.137 150.5 369.933 147.662C369.88 146.921 369.975 146.178 370.211 145.474C370.447 144.77 370.821 144.12 371.31 143.562L378.103 135.762C382.276 130.958 384.372 124.694 383.933 118.346C383.494 111.998 380.554 106.084 375.76 101.9V101.9ZM294 184H314.885L293.342 208.744L277.633 218L274.264 215.067L281.273 198.234L293.684 183.98C293.79 183.988 293.893 184 294 184ZM284.238 270.706C278.109 274.127 271.191 275.882 264.172 275.796C257.154 275.709 250.281 273.784 244.238 270.213V270.213C238.201 266.631 233.215 261.522 229.78 255.4V255.4C226.351 249.293 224.585 242.392 224.661 235.388C224.737 228.384 226.651 221.522 230.211 215.491C233.772 209.459 238.855 204.468 244.95 201.018C251.046 197.568 257.941 195.779 264.945 195.831L257.277 214.242C256.632 215.792 256.49 217.506 256.873 219.141C257.255 220.775 258.143 222.248 259.409 223.351L260.409 224.221L251.85 237.06C249.947 239.915 248.855 243.232 248.689 246.659C248.524 250.086 249.291 253.493 250.91 256.518C252.529 259.543 254.939 262.071 257.882 263.834C260.825 265.597 264.191 266.529 267.622 266.529C271.053 266.529 274.419 265.597 277.362 263.834C280.306 262.071 282.715 259.543 284.334 256.518C285.953 253.493 286.721 250.086 286.555 246.659C286.39 243.232 285.297 239.915 283.394 237.06L281.538 234.276L302.208 222.091C303.88 226.64 304.709 231.456 304.654 236.303V236.303C304.555 243.322 302.618 250.192 299.036 256.228C295.454 262.265 290.351 267.256 284.238 270.706ZM270.478 248.333C270.372 248.739 270.18 249.118 269.915 249.443C269.65 249.768 269.317 250.033 268.941 250.219C268.53 250.423 268.078 250.529 267.62 250.529C267.161 250.529 266.709 250.423 266.298 250.219C265.923 250.031 265.593 249.766 265.328 249.441C265.064 249.116 264.871 248.739 264.764 248.334C264.656 247.929 264.636 247.506 264.705 247.092C264.773 246.679 264.929 246.285 265.161 245.936L267.62 242.247L270.08 245.936C270.314 246.284 270.471 246.678 270.54 247.091C270.608 247.505 270.587 247.928 270.478 248.333V248.333ZM286.911 167.4L275.211 180.842C264.924 178.849 254.284 179.796 244.511 183.574L236.622 169.516C252.59 162.808 270.436 162.057 286.911 167.4ZM222.668 177.347L226.312 183.84L230.562 191.413C219.193 200.185 211.606 212.97 209.353 227.152L206.427 227.117L193.227 226.956C194.471 217.11 197.726 207.625 202.791 199.09C207.856 190.555 214.622 183.153 222.668 177.344V177.347ZM201.874 271.065C197.016 262.406 194.002 252.835 193.021 242.955L203.708 243.085L209.146 243.151C211.021 257.398 218.305 270.377 229.489 279.4L226.472 284.482L221.256 293.267C213.333 287.281 206.734 279.721 201.874 271.062V271.065ZM235.022 301.421L240.914 291.497L243.253 287.557C256.533 293.022 271.398 293.206 284.809 288.072L286.67 291.389L292.702 302.138C283.552 305.978 273.71 307.896 263.787 307.772C253.865 307.649 244.073 305.486 235.022 301.418V301.421ZM306.655 294.307L298.762 280.241C310.13 271.467 317.717 258.682 319.971 244.5L323.288 244.54L336.094 244.696C334.849 254.54 331.594 264.024 326.53 272.557C321.465 281.091 314.7 288.491 306.655 294.3V294.307ZM327.449 200.589C332.306 209.249 335.319 218.82 336.3 228.7L325.579 228.569L320.174 228.504C319.286 221.809 317.194 215.33 314.001 209.38L325.063 196.675C325.9 197.953 326.7 199.253 327.449 200.586V200.589ZM328.781 168.042C328.524 168.018 328.264 168.003 328 168.003H307.6L327.7 144.918L339.767 155.424L328.781 168.042ZM366.034 125.256L359.242 133.056C355.964 136.799 354.086 141.564 353.929 146.538L334.553 129.668C339.457 128.828 343.918 126.312 347.174 122.55L353.966 114.75C355.359 113.15 357.331 112.168 359.448 112.022C361.565 111.875 363.653 112.576 365.253 113.969C366.853 115.362 367.835 117.334 367.981 119.451C368.128 121.567 367.427 123.656 366.034 125.256V125.256Z" fill="black"/>
</svg>
