<?xml version="1.0" encoding="UTF-8" standalone="no"?>
<svg xmlns="http://www.w3.org/2000/svg" viewBox="0 0 64 64">
  <g id="Layer_17" data-name="Layer 17">
    <path d="M32,3.25h0A28.75,28.75,0,0,0,3.25,32h0A28.75,28.75,0,0,0,32,60.75h0A28.75,28.75,0,0,0,60.75,32h0A28.75,28.75,0,0,0,32,3.25Zm-2.56,27.8A15,15,0,0,1,14.5,46a.75.75,0,0,1,0-1.5,13.44,13.44,0,0,0,13.21-11,2.76,2.76,0,0,1-1.15.25H18.88a5.13,5.13,0,0,1-5.13-5.13V23.13A5.13,5.13,0,0,1,18.88,18h7.68a2.88,2.88,0,0,1,2.88,2.87Zm20.81,0A15,15,0,0,1,35.31,46a.75.75,0,0,1,0-1.5,13.44,13.44,0,0,0,13.21-11,2.75,2.75,0,0,1-1.14.25H39.69a5.13,5.13,0,0,1-5.13-5.13V23.13A5.13,5.13,0,0,1,39.69,18h7.69a2.88,2.88,0,0,1,2.87,2.87Z" fill="#75e8e7" />
  </g>
</svg>